<?xml version="1.0" encoding="UTF-8" standalone="no"?>
<svg
   xmlns:dc="http://purl.org/dc/elements/1.1/"
   xmlns:cc="http://creativecommons.org/ns#"
   xmlns:rdf="http://www.w3.org/1999/02/22-rdf-syntax-ns#"
   xmlns:svg="http://www.w3.org/2000/svg"
   xmlns="http://www.w3.org/2000/svg"
   id="Слой_1"
   data-name="Слой 1"
   viewBox="1 1 24 24"
   version="1.1">
  <metadata
     id="metadata43">
    <rdf:RDF>
      <cc:Work
         rdf:about="">
        <cc:license
           rdf:resource="http://creativecommons.org/licenses/by-sa/4.0/" />
        <dc:format>image/svg+xml</dc:format>
        <dc:type
           rdf:resource="http://purl.org/dc/dcmitype/StillImage" />
        <dc:title>component_select_alternate_shape</dc:title>
      </cc:Work>
      <cc:License
         rdf:about="http://creativecommons.org/licenses/by-sa/4.0/">
        <cc:permits
           rdf:resource="http://creativecommons.org/ns#Reproduction" />
        <cc:permits
           rdf:resource="http://creativecommons.org/ns#Distribution" />
        <cc:requires
           rdf:resource="http://creativecommons.org/ns#Notice" />
        <cc:requires
           rdf:resource="http://creativecommons.org/ns#Attribution" />
        <cc:permits
           rdf:resource="http://creativecommons.org/ns#DerivativeWorks" />
        <cc:requires
           rdf:resource="http://creativecommons.org/ns#ShareAlike" />
      </cc:License>
    </rdf:RDF>
  </metadata>
  <defs
     id="defs3904">
    <style
       id="style3902">.cls-1{fill:#1a81c4;}.cls-2{fill:none;stroke:#545454;stroke-linecap:round;stroke-linejoin:round;}</style>
  </defs>
  <title
     id="title3906">component_select_alternate_shape</title>
  <path
     class="cls-2"
     d="m 13.0148,9 a 5.3184,5.3184 0 0 1 -4.8988,3.3409 l -4.9431,0 0,-10.94 4.9431,0 a 5.3308,5.3308 0 0 1 5.0108,3.6372"
     id="path3912"
     style="fill:none;stroke:#545454;stroke-linecap:round;stroke-linejoin:round" />
  <line
     class="cls-2"
     x1="2.8547"
     y1="3.6067"
     x2="1.5273"
     y2="3.6067"
     id="line3916"
     style="fill:none;stroke:#545454;stroke-linecap:round;stroke-linejoin:round" />
  <line
     class="cls-2"
     x1="2.8547"
     y1="10.1351"
     x2="1.5273"
     y2="10.1351"
     id="line3918"
     style="fill:none;stroke:#545454;stroke-linecap:round;stroke-linejoin:round" />
  <line
     class="cls-2"
     x1="17.214"
     y1="6.8709"
     x2="15.8513"
     y2="6.8709"
     id="line3920"
     style="fill:none;stroke:#545454;stroke-linecap:round;stroke-linejoin:round" />
  <path
     style="fill:none;stroke:#545454;stroke-linecap:round;stroke-linejoin:round"
     d="m 11.811,24.5299 c 2.0431,-3.3821 2.0431,-7.5953 0,-10.9774"
     id="path4513" />
  <path
     style="fill:none;stroke:#545454;stroke-linecap:round;stroke-linejoin:round"
     id="path4515"
     d="m 11.3509,14.9948 a 1.5557,1.5557 0 0 1 1.5557,1.5557 1.5557,1.5557 0 0 1 -1.5557,1.5556 1.553,1.553 0 0 1 -1.55304,-1.553 1.5531,1.5531 0 0 1 1.55314,-1.5531"
     class="cls-2" />
  <line
     style="fill:none;stroke:#545454;stroke-linecap:round;stroke-linejoin:round"
     id="line4517"
     y2="16.5881"
     x2="8"
     y1="16.5881"
     x1="9.32743"
     class="cls-2" />
  <path
     style="fill:none;stroke:#545454;stroke-linecap:round;stroke-linejoin:round"
     d="m 24.4745,19 -1,0"
     id="line4521" />
  <path
     id="path4533"
     d="m 23.311,18.8709 a 10.6368,10.6368 0 0 0 -9.5,-5.3184 l -2,0"
     style="fill:none;stroke:#545454;stroke-linecap:round;stroke-linejoin:round" />
  <path
     style="fill:none;stroke:#545454;stroke-linecap:round;stroke-linejoin:round"
     d="m 23.311,19.2115 a 10.6368,10.6368 0 0 1 -9.5,5.3184 l -2,0"
     id="path5353" />
  <path
     class="cls-2"
     d="m 13.8141,5.43739 a 1.5557,1.5557 0 0 1 1.5557,1.5557 1.5557,1.5557 0 0 1 -1.5557,1.5556 1.553,1.553 0 0 1 -1.553,-1.553 1.5531,1.5531 0 0 1 1.5531,-1.5531"
     id="path5359"
     style="fill:none;stroke:#545454;stroke-linecap:round;stroke-linejoin:round" />
  <path
     class="cls-2"
     d="m 11.3509,20 a 1.5557,1.5557 0 0 1 1.5557,1.5557 1.5557,1.5557 0 0 1 -1.5557,1.5556 1.553,1.553 0 0 1 -1.55304,-1.553 1.5531,1.5531 0 0 1 1.55314,-1.5531"
     id="path5361"
     style="fill:none;stroke:#545454;stroke-linecap:round;stroke-linejoin:round" />
  <line
     class="cls-2"
     x1="9.32743"
     y1="21.5933"
     x2="8"
     y2="21.5933"
     id="line5363"
     style="fill:none;stroke:#545454;stroke-linecap:round;stroke-linejoin:round" />
</svg>
